<svg xmlns="http://www.w3.org/2000/svg" width="390" height="844" viewBox="0 0 390 844">
  <rect width="390" height="844" fill="#0a0a1a"/>
  <rect x="0" y="0" width="390" height="100" fill="#101018"/>
  <text x="24" y="45" font-family="Arial" font-size="14" fill="#8b8b94">Good morning,</text>
  <text x="24" y="70" font-family="Arial" font-size="20" font-weight="bold" fill="white">Chamuditha</text>
  <circle cx="350" cy="50" r="22" fill="#38bdf820" stroke="#38bdf8" stroke-width="1"/>
  <text x="350" y="55" text-anchor="middle" font-family="Arial" font-size="12" fill="#38bdf8">CD</text>
  <!-- Health Score Card -->
  <rect x="24" y="120" width="342" height="140" rx="16" fill="#101018" stroke="#1e1e28" stroke-width="1"/>
  <text x="44" y="155" font-family="Arial" font-size="12" fill="#8b8b94">Dental Health Score</text>
  <text x="44" y="200" font-family="Arial" font-size="48" font-weight="bold" fill="#38bdf8">87</text>
  <text x="120" y="200" font-family="Arial" font-size="14" fill="#34d399">/ 100</text>
  <text x="44" y="230" font-family="Arial" font-size="12" fill="#34d399">Great! Your teeth are healthy</text>
  <rect x="280" y="140" width="60" height="60" rx="30" fill="#38bdf810" stroke="#38bdf830" stroke-width="1"/>
  <text x="310" y="178" text-anchor="middle" font-family="Arial" font-size="24" fill="#38bdf8">😊</text>
  <!-- Quick Actions -->
  <text x="24" y="300" font-family="Arial" font-size="14" font-weight="bold" fill="white">Quick Actions</text>
  <rect x="24" y="320" width="105" height="90" rx="12" fill="#38bdf810" stroke="#38bdf820" stroke-width="1"/>
  <text x="76" y="365" text-anchor="middle" font-family="Arial" font-size="24">📷</text>
  <text x="76" y="390" text-anchor="middle" font-family="Arial" font-size="11" fill="#38bdf8">Scan</text>
  <rect x="142" y="320" width="105" height="90" rx="12" fill="#a78bfa10" stroke="#a78bfa20" stroke-width="1"/>
  <text x="195" y="365" text-anchor="middle" font-family="Arial" font-size="24">📅</text>
  <text x="195" y="390" text-anchor="middle" font-family="Arial" font-size="11" fill="#a78bfa">Book</text>
  <rect x="260" y="320" width="105" height="90" rx="12" fill="#34d39910" stroke="#34d39920" stroke-width="1"/>
  <text x="312" y="365" text-anchor="middle" font-family="Arial" font-size="24">🤖</text>
  <text x="312" y="390" text-anchor="middle" font-family="Arial" font-size="11" fill="#34d399">AI Chat</text>
  <!-- Upcoming -->
  <text x="24" y="450" font-family="Arial" font-size="14" font-weight="bold" fill="white">Upcoming</text>
  <rect x="24" y="470" width="342" height="70" rx="12" fill="#101018" stroke="#1e1e28" stroke-width="1"/>
  <circle cx="59" cy="505" r="20" fill="#a78bfa15"/>
  <text x="59" y="510" text-anchor="middle" font-family="Arial" font-size="14">🦷</text>
  <text x="90" y="498" font-family="Arial" font-size="13" font-weight="bold" fill="white">Dental Checkup</text>
  <text x="90" y="518" font-family="Arial" font-size="11" fill="#8b8b94">Tomorrow, 10:00 AM</text>
  <!-- Bottom Nav -->
  <rect x="0" y="780" width="390" height="64" fill="#101018" stroke="#1e1e28" stroke-width="1"/>
  <text x="78" y="818" text-anchor="middle" font-family="Arial" font-size="10" fill="#8b8b94">Home</text>
  <text x="195" y="818" text-anchor="middle" font-family="Arial" font-size="10" fill="#38bdf8">Scan</text>
  <text x="312" y="818" text-anchor="middle" font-family="Arial" font-size="10" fill="#8b8b94">Profile</text>
</svg>